<?xml version="1.0" encoding="UTF-8" standalone="no"?>
<!-- Created with Inkscape (http://www.inkscape.org/) -->

<svg
   xmlns:dc="http://purl.org/dc/elements/1.1/"
   xmlns:cc="http://creativecommons.org/ns#"
   xmlns:rdf="http://www.w3.org/1999/02/22-rdf-syntax-ns#"
   xmlns:svg="http://www.w3.org/2000/svg"
   xmlns="http://www.w3.org/2000/svg"
   xmlns:xlink="http://www.w3.org/1999/xlink"
   xmlns:sodipodi="http://sodipodi.sourceforge.net/DTD/sodipodi-0.dtd"
   xmlns:inkscape="http://www.inkscape.org/namespaces/inkscape"
   id="svg2"
   version="1.1"
   inkscape:version="0.92.1 r15371"
   width="180"
   height="180"
   xml:space="preserve"
   sodipodi:docname="saludame_icon.svg"
   inkscape:export-filename="C:\Users\Pablo\Documents\saludame\saludame_icon_32.png"
   inkscape:export-xdpi="17.07"
   inkscape:export-ydpi="17.07"><metadata
     id="metadata8"><rdf:RDF><cc:Work
         rdf:about=""><dc:format>image/svg+xml</dc:format><dc:type
           rdf:resource="http://purl.org/dc/dcmitype/StillImage" /><dc:title></dc:title></cc:Work></rdf:RDF></metadata><defs
     id="defs6"><clipPath
       clipPathUnits="userSpaceOnUse"
       id="clipPath94"><path
         d="m 601.399,399.449 c 0.859,-6.443 -0.129,-12.471 11.552,-17.703 v 0 c 10.672,-4.779 15.497,-3.82 17.417,-2.84 v 0 c 0.408,2.795 1.855,15.096 -3.747,18.947 v 0 c -5.967,4.107 -23.289,12.534 -26.732,18.939 v 0 c 0.205,-4.995 1.002,-13.529 1.51,-17.343"
         id="path96"
         inkscape:connector-curvature="0" /></clipPath><linearGradient
       x1="0"
       y1="0"
       x2="1"
       y2="0"
       gradientUnits="userSpaceOnUse"
       gradientTransform="matrix(30.950195,0,0,-30.950195,599.88916,397.44824)"
       spreadMethod="pad"
       id="linearGradient102"><stop
         style="stop-opacity:1;stop-color:#4ac200"
         offset="0"
         id="stop104" /><stop
         style="stop-opacity:1;stop-color:#95e700"
         offset="1"
         id="stop106" /></linearGradient><clipPath
       clipPathUnits="userSpaceOnUse"
       id="clipPath114"><path
         d="m 600.049,413.835 c 3.723,-7.836 10.311,-19.286 18.287,-22.738 v 0 c 8.751,-3.782 11.371,-8.629 12.161,-11.202 v 0 c 0.486,3.982 1.217,14.461 -3.876,17.958 v 0 c -5.967,4.107 -23.289,12.534 -26.732,18.939 v 0 c 0.038,-0.888 0.094,-1.89 0.16,-2.957"
         id="path116"
         inkscape:connector-curvature="0" /></clipPath><linearGradient
       x1="0"
       y1="0"
       x2="1"
       y2="0"
       gradientUnits="userSpaceOnUse"
       gradientTransform="matrix(30.950195,0,0,-30.950195,599.88916,398.34375)"
       spreadMethod="pad"
       id="linearGradient122"><stop
         style="stop-opacity:1;stop-color:#4ac200"
         offset="0"
         id="stop124" /><stop
         style="stop-opacity:1;stop-color:#4ac200"
         offset="1"
         id="stop126" /></linearGradient><clipPath
       clipPathUnits="userSpaceOnUse"
       id="clipPath134"><path
         d="M 0,600 H 800 V 0 H 0 Z"
         id="path136"
         inkscape:connector-curvature="0" /></clipPath><linearGradient
       inkscape:collect="always"
       xlink:href="#linearGradient102"
       id="linearGradient4320"
       gradientUnits="userSpaceOnUse"
       gradientTransform="matrix(-30.950195,0,0,-30.950195,661.30939,4.3384986)"
       spreadMethod="pad"
       x1="0"
       y1="0"
       x2="1"
       y2="0" /><linearGradient
       inkscape:collect="always"
       xlink:href="#linearGradient122"
       id="linearGradient4322"
       gradientUnits="userSpaceOnUse"
       gradientTransform="matrix(-30.950195,0,0,-30.950195,661.30939,5.2340086)"
       spreadMethod="pad"
       x1="0"
       y1="0"
       x2="1"
       y2="0" /></defs><sodipodi:namedview
     pagecolor="#ffffff"
     bordercolor="#666666"
     borderopacity="1"
     objecttolerance="10"
     gridtolerance="10"
     guidetolerance="10"
     inkscape:pageopacity="0"
     inkscape:pageshadow="2"
     inkscape:window-width="1536"
     inkscape:window-height="801"
     id="namedview4"
     showgrid="false"
     inkscape:zoom="2.5173333"
     inkscape:cx="73.104327"
     inkscape:cy="82.001938"
     inkscape:window-x="-8"
     inkscape:window-y="-8"
     inkscape:window-maximized="1"
     inkscape:current-layer="svg2"
     fit-margin-top="20"
     fit-margin-left="20"
     fit-margin-right="20"
     fit-margin-bottom="20" /><g
     id="g12"
     inkscape:groupmode="layer"
     inkscape:label="saludame"
     transform="matrix(1.25,0,0,-1.25,-155.95793,239.84742)"><g
       id="manzanayhoja"
       transform="translate(-432.82572,-227.84397)"><g
         transform="matrix(-1,0,0,1,1261.1985,0)"
         id="caboyhoja"><g
           inkscape:label="#g82"
           id="cabo"
           transform="translate(631.9438,372.8486)"><title
             id="title3341">cabo</title><path
             d="m 0,0 c 0,0 -1.447,16.203 9.256,18.521 3.185,0.289 4.633,0 3.185,3.471 C 10.703,22.57 9.26,24.017 8.969,25.463 6.941,26.045 7.217,24.016 6.5,22.283 5.785,20.546 -3.402,18.23 -2.57,0 -1.143,-0.335 0,0 0,0"
             style="fill:#404407;fill-opacity:1;fill-rule:nonzero;stroke:none"
             id="path84"
             inkscape:connector-curvature="0" /></g><g
           inkscape:label="#g3325"
           id="hoja"><title
             id="title3339">hoja</title><g
             transform="translate(630.2739,378.3281)"
             id="g86"><path
               id="path88"
               style="fill:#11a30a;fill-opacity:1;fill-rule:nonzero;stroke:none"
               d="m 0,0 c 0,0 2.684,15.17 -3.652,19.525 -6.336,4.355 -25.457,13.579 -27.205,20.086 -1.752,6.512 -0.067,-13.443 0.793,-19.886 C -29.207,13.278 -30.193,7.25 -18.512,2.017 -3.383,-4.761 0,0 0,0"
               inkscape:connector-curvature="0" /></g><g
             id="g90"><g
               clip-path="url(#clipPath94)"
               id="g92"><g
                 id="g98"><g
                   id="g100"><path
                     id="path108"
                     style="fill:url(#linearGradient4320);stroke:none"
                     d="m 601.399,399.449 c 0.859,-6.443 -0.129,-12.471 11.552,-17.703 v 0 c 10.672,-4.779 15.497,-3.82 17.417,-2.84 v 0 c 0.408,2.795 1.855,15.096 -3.747,18.947 v 0 c -5.967,4.107 -23.289,12.534 -26.732,18.939 v 0 c 0.205,-4.995 1.002,-13.529 1.51,-17.343"
                     inkscape:connector-curvature="0" /></g></g></g></g><g
             id="g110"><g
               clip-path="url(#clipPath114)"
               id="g112"><g
                 id="g118"><g
                   id="g120"><path
                     id="path128"
                     style="fill:url(#linearGradient4322);stroke:none"
                     d="m 600.049,413.835 c 3.723,-7.836 10.311,-19.286 18.287,-22.738 v 0 c 8.751,-3.782 11.371,-8.629 12.161,-11.202 v 0 c 0.486,3.982 1.217,14.461 -3.876,17.958 v 0 c -5.967,4.107 -23.289,12.534 -26.732,18.939 v 0 c 0.038,-0.888 0.094,-1.89 0.16,-2.957"
                     inkscape:connector-curvature="0" /></g></g></g></g></g></g><g
         id="manzana"><g
           id="g78"
           transform="translate(685.3013,359.8232)"><path
             d="m 0,0 c 0,0 -11.281,17.939 -29.225,17.361 -17.398,-0.56 -19.009,-1.46 -26.486,-2.25 -7.473,0.79 -9.084,1.69 -26.486,2.25 C -100.133,17.939 -111.42,0 -111.42,0 c 0,0 -22.225,-34.18 13.022,-73.491 14.796,-16.507 28.478,-7.941 42.687,-7.542 14.215,-0.399 27.893,-8.965 42.693,7.542 C 22.227,-34.18 0,0 0,0"
             style="fill:#ef0c0c;fill-opacity:1;fill-rule:nonzero;stroke:none"
             id="path80"
             inkscape:connector-curvature="0" /></g><g
           id="g132"
           clip-path="url(#clipPath134)"><g
             id="g138"
             transform="translate(672.2837,286.332)"><path
               d="m 0,0 c 35.244,39.312 13.018,73.491 13.018,73.491 0,0 -2.973,4.719 -8.288,9.24 C 8.461,74.058 14.186,51.78 9.852,32.908 6.238,17.165 -6.322,-1.653 -16.752,-5.124 -33.865,-8.888 -35.008,10.655 -60.998,-4.658 -67.969,-8.77 -84.66,3.17 -93.102,9.796 -90.898,6.577 -88.348,3.308 -85.381,0 -70.584,-16.507 -56.902,-7.94 -42.693,-7.542 -28.479,-7.94 -14.801,-16.507 0,0"
               style="fill:#ce0505;fill-opacity:1;fill-rule:nonzero;stroke:none"
               id="path140"
               inkscape:connector-curvature="0" /></g><g
             id="g142"
             transform="translate(594.6958,350.0508)"><path
               d="m 0,0 c -9.213,-11.185 -12.77,-30.338 -19.738,-24.72 -4.506,3.63 -2.895,28.236 8.099,39.06 12,11.807 29.682,11.956 38.241,4.673 C 32.727,13.801 10.787,13.1 0,0"
               style="fill:#f2683d;fill-opacity:1;fill-rule:nonzero;stroke:none"
               id="path144"
               inkscape:connector-curvature="0" /></g></g></g></g></g></svg>