<?xml version="1.0" encoding="UTF-8" standalone="no"?>
<!DOCTYPE svg PUBLIC "-//W3C//DTD SVG 1.1//EN" "http://www.w3.org/Graphics/SVG/1.1/DTD/svg11.dtd" [
	<!ENTITY stroke_color "#666666">
	<!ENTITY fill_color "#FFFFFF">
]>
<svg
   xmlns:svg="http://www.w3.org/2000/svg"
   xmlns="http://www.w3.org/2000/svg"
   version="1.1"
   width="131.73584"
   height="150.11812"
   id="svg2918"
   xml:space="preserve"><defs
     id="defs2922"><clipPath
       id="clipPath2940"><path
         d="M 0,600 800,600 800,0 0,0 0,600 z"
         id="path2942" /></clipPath></defs><g
     transform="matrix(1.25,0,0,-1.25,-196.09669,476.84693)"
     id="g2928"><g
       id="g3824"><g
         transform="translate(256.0039,331.5659)"
         id="g2944"><path
           d="m 0,0 c 0,0 -9.406,14.952 -24.357,14.471 -14.503,-0.468 -15.846,-1.218 -22.076,-1.877 -6.229,0.659 -7.572,1.409 -22.075,1.877 C -83.459,14.952 -92.864,0 -92.864,0 c 0,0 -18.524,-28.485 10.852,-61.251 12.334,-13.757 23.735,-6.62 35.579,-6.286 11.845,-0.334 23.246,-7.471 35.581,6.286 C 18.523,-28.485 0,0 0,0"
           id="path2946"
           style="fill:none;stroke:&stroke_color;;stroke-opacity:1" /></g><g
         transform="translate(211.5308,342.4219)"
         id="g2948"><path
           d="m 0,0 c 0,0 -1.206,13.506 7.716,15.436 2.654,0.241 3.86,0 2.654,2.894 C 8.923,18.812 7.717,20.018 7.476,21.225 5.788,21.706 6.016,20.018 5.419,18.571 4.823,17.124 -2.834,15.194 -2.141,0 -0.951,-0.28 0,0 0,0"
           id="path2950"
           style="fill:&fill_color;;stroke:&stroke_color;;stroke-opacity:1" /></g><g
         transform="translate(210.1416,346.9897)"
         id="g2952"
         style="stroke-width:0.80000001;stroke-miterlimit:4;stroke-dasharray:none"><path
           d="m 0,0 c 0,0 2.235,12.644 -3.045,16.272 -5.279,3.631 -21.217,11.319 -22.676,16.742 -1.459,5.426 -0.053,-11.204 0.662,-16.576 0.716,-5.371 -0.107,-10.396 9.63,-14.756 C -2.82,-3.968 0,0 0,0"
           id="path2954"
           style="fill:none;stroke:&stroke_color;;stroke-width:0.80000001;stroke-miterlimit:4;stroke-opacity:1;stroke-dasharray:none" /></g><g
         transform="translate(198.6616,336.8896)"
         id="g3020"><path
           d="m 0,0 c 0,0 -12.223,1.579 -17.915,-2.653 -9.405,-6.993 -12.202,-14.265 -13.131,-23.701 -0.599,-6.077 -0.056,-15.556 -3.579,-7.717 -1.977,4.398 -2.416,23.532 6.753,32.553 9.999,9.841 17.604,7.023 26.768,5.079 C 8.06,1.618 1.185,-0.219 0,0"
           id="path3022"
           style="fill:#e96060;fill-opacity:1;fill-rule:nonzero;stroke:none" /></g></g></g></svg>
